<?xml version="1.0" standalone="no"?>
<!DOCTYPE svg PUBLIC "-//W3C//DTD SVG 20010904//EN"
 "http://www.w3.org/TR/2001/REC-SVG-20010904/DTD/svg10.dtd">
<svg version="1.0" xmlns="http://www.w3.org/2000/svg"
 width="588.000000pt" height="588.000000pt" viewBox="0 0 588.000000 588.000000"
 preserveAspectRatio="xMidYMid meet">
<metadata>
Created by potrace 1.11, written by Peter Selinger 2001-2013
</metadata>
<g transform="translate(0.000000,588.000000) scale(0.100000,-0.100000)"
fill="#000000" stroke="none">
<path d="M4028 5875 c-2 -2 -21 -6 -43 -9 -172 -27 -293 -63 -443 -132 -41
-19 -76 -34 -78 -34 -3 0 -44 -26 -92 -57 -100 -66 -212 -169 -268 -248 -42
-59 -53 -66 -55 -35 -2 21 -5 38 -9 43 -1 1 -3 10 -5 19 -7 35 -36 113 -48
128 -53 65 -89 42 -131 -83 -9 -27 -19 -65 -22 -85 -3 -21 -9 -52 -13 -71 l-6
-34 -59 61 c-66 69 -146 130 -233 177 -58 32 -210 94 -246 101 -10 2 -27 6
-37 9 -10 3 -29 8 -42 10 -13 3 -34 7 -48 9 -119 23 -220 26 -334 9 -49 -7
-94 -17 -101 -23 -17 -14 22 -109 84 -204 49 -74 170 -201 202 -211 10 -4 19
-10 19 -14 0 -14 194 -109 285 -139 138 -46 239 -64 370 -67 l119 -2 -3 -49
c-1 -27 -4 -50 -5 -51 -1 -1 -29 -5 -62 -8 -117 -11 -194 -20 -244 -30 -190
-37 -236 -48 -380 -93 -290 -91 -583 -248 -825 -441 -38 -31 -79 -63 -89 -71
-44 -34 -255 -251 -301 -309 -27 -35 -55 -68 -60 -74 -18 -20 -118 -168 -156
-232 -106 -174 -225 -466 -264 -643 -28 -127 -39 -191 -53 -302 -4 -30 -7
-149 -6 -265 1 -224 18 -364 64 -540 6 -22 13 -48 15 -58 34 -145 159 -433
257 -591 46 -75 159 -236 183 -262 5 -6 35 -40 65 -75 271 -314 655 -578 1055
-727 103 -39 287 -94 352 -106 315 -58 311 -57 568 -61 191 -2 242 0 400 21
28 3 66 8 85 10 19 3 63 11 98 19 34 8 77 17 95 20 35 6 38 7 207 61 173 55
462 185 530 238 8 7 32 21 53 31 20 11 37 23 37 27 0 3 9 10 20 13 11 3 26 12
32 18 7 7 31 24 54 40 22 15 49 35 60 45 10 10 28 24 40 32 74 52 253 224 346
334 87 102 84 99 170 221 91 131 196 332 253 485 15 41 31 84 35 95 11 25 29
85 35 114 10 46 13 58 25 101 7 25 13 52 15 60 8 44 18 107 21 139 3 20 8 63
11 96 10 79 10 373 1 450 -16 126 -20 152 -34 221 -9 39 -17 79 -19 90 -2 10
-4 20 -5 22 -2 1 -3 10 -5 20 -1 9 -4 24 -8 32 -3 8 -12 38 -20 65 -52 182
-166 422 -286 602 -72 109 -95 140 -183 247 -109 131 -342 341 -499 449 -185
126 -301 187 -564 297 -54 22 -230 77 -275 86 -14 3 -50 11 -80 19 -53 13
-102 23 -145 30 -11 1 -36 5 -55 8 -32 6 -72 10 -204 23 -28 3 -52 6 -53 8 -2
1 -4 38 -6 82 l-3 79 161 0 c88 0 178 4 200 7 138 25 183 36 295 75 105 36
282 119 288 135 2 4 8 8 14 8 18 0 173 127 222 182 79 88 176 244 176 283 0 8
4 15 8 15 5 0 9 6 10 13 1 6 4 24 8 38 6 29 14 25 -104 52 -53 12 -324 21
-334 12z"/>
</g>
</svg>
